{"title":"Baaghi {2016} DesiScr Rip XviD AC3 {Team DUS} - jnmjy","uid":14483372,"size":1559310942,"categoryP":"video","categoryS":"movies","magnet":"?xt=urn:btih:4c4d3383b530d56c807b0d35941a1c7e6968e6d9&amp;dn=Baaghi+%7B2016%7D+DesiScr+Rip+XviD+AC3+%7BTeam+DUS%7D+-+jnmjy&amp;tr=udp%3A%2F%2Ftracker.leechers-paradise.org%3A6969&amp;tr=udp%3A%2F%2Fzer0day.ch%3A1337&amp;tr=udp%3A%2F%2Fopen.demonii.com%3A1337&amp;tr=udp%3A%2F%2Ftracker.coppersurfer.tk%3A6969&amp;tr=udp%3A%2F%2Fexodus.desync.com%3A6969","seeders":0,"leechers":0,"uploader":"makintos13","files":1,"time":1462043759,"description":"Baaghi {2016} DesiScr Rip XviD AC3 {Team DUS} - jnmjy\r\n\r\nScreens:\r\n \nhttps://imgmak.com/T1w\r\n \nhttps://imgmak.com/T1J\r\n \nhttps://imgmak.com/T1W\r\n \nhttps://imgmak.com/T1d\r\n \nhttps://imgmak.com/T1s\r\n \nhttps://imgmak.com/T14\r\n \nhttps://imgmak.com/T18\r\n \nhttps://imgmak.com/T1L\r\n \nhttps://imgmak.com/T1X\r\n \nhttps://imgmak.com/TUC\r\n\r\nYear.............: 2016\r\nSource: agentofheart (Many thanks!)\r\nRipper...........: jnmjy\r\n\r\nGeneral\r\nFormat                                   : AVI\r\nFormat/Info                              : Audio Video Interleave\r\nFile size                                : 1.45 GiB\r\nDuration                                 : 2h 15mn\r\nOverall bit rate                         : 1 540 Kbps\r\n\r\nVideo\r\nID                                       : 0\r\nFormat                                   : MPEG-4 Visual\r\nFormat profile                           : Advanced   \r\nFormat settings, BVOP                    : 2\r\nFormat settings, QPel                    : No\r\nFormat settings, GMC                     : No warppoints\r\nFormat settings, Matrix                  : Default (H.263)\r\nCodec ID                                 : XVID\r\nCodec ID/Hint                            : XviD\r\nDuration                                 : 2h 15mn\r\nBit rate                                 : 1 340 Kbps\r\nWidth                                    : 720 pixels\r\nHeight                                   : 304 pixels\r\nDisplay aspect ratio                     : 2.35:1\r\nFrame rate                               : 23.976 fps\r\nColor space                              : YUV\r\nChroma subsampling                       : 4:2:0\r\nBit depth                                : 8 bits\r\nScan type                                : Progressive\r\nCompression mode                         : Lossy\r\nBits/(Pixel*Frame)                       : 0.255\r\nStream size                              : 1.26 GiB (87%)\r\nWriting library                          : XviD 67\r\n\r\nAudio\r\nID                                       : 1\r\nFormat                                   : AC-3\r\nFormat/Info                              : Audio Coding 3\r\nMode extension                           : CM (complete main)\r\nFormat settings, Endianness              : Big\r\nCodec ID                                 : 2000\r\nDuration                                 : 2h 15mn\r\nBit rate mode                            : Constant\r\nBit rate                                 : 192 Kbps\r\nChannel(s)                               : 2 channels\r\nChannel positions                        : Front: L R\r\nSampling rate                            : 48.0 KHz\r\nCompression mode                         : Lossy\r\nStream size                              : 185 MiB (12%)\r\nAlignment                                : Aligned on interleaves\r\nInterleave, duration                     : 64 ms (1.53 video frames)\r\nInterleave, preload duration             : 192 ms","torrent":{"xt":"urn:btih:4c4d3383b530d56c807b0d35941a1c7e6968e6d9","amp;dn":"Baaghi+%7B2016%7D+DesiScr+Rip+XviD+AC3+%7BTeam+DUS%7D+-+jnmjy","amp;tr":["udp%3A%2F%2Ftracker.leechers-paradise.org%3A6969","udp%3A%2F%2Fzer0day.ch%3A1337","udp%3A%2F%2Fopen.demonii.com%3A1337","udp%3A%2F%2Ftracker.coppersurfer.tk%3A6969","udp%3A%2F%2Fexodus.desync.com%3A6969"],"infoHash":"4c4d3383b530d56c807b0d35941a1c7e6968e6d9","infoHashBuffer":{"type":"Buffer","data":[76,77,51,131,181,48,213,108,128,123,13,53,148,26,28,126,105,104,230,217]},"announce":[],"urlList":[]}}